<?xml version="1.0" encoding="utf-8"?>
<!-- Generator: Adobe Illustrator 17.1.0, SVG Export Plug-In . SVG Version: 6.00 Build 0)  -->
<!DOCTYPE svg PUBLIC "-//W3C//DTD SVG 1.0//EN" "http://www.w3.org/TR/2001/REC-SVG-20010904/DTD/svg10.dtd">
<svg version="1.0" id="Layer_1" xmlns="http://www.w3.org/2000/svg" xmlns:xlink="http://www.w3.org/1999/xlink" x="0px" y="0px"
	 width="26px" height="26px" viewBox="0 0 26 26" style="enable-background:new 0 0 26 26;" xml:space="preserve">
<circle cx="17" cy="12" r="2"/>
<circle cx="15" cy="23" r="1"/>
<circle cx="15" cy="20" r="1"/>
<circle cx="11" cy="23" r="1"/>
<circle cx="11" cy="20" r="1"/>
<path d="M15,17c0-0.7-2-1.2-2-1.2s-2,0.7-2,1.2H15z"/>
<circle cx="9" cy="12" r="2"/>
<g>
	<path d="M13,1.7c4.5,0,9.3,2.4,9.3,9.2c0,7.5-5.1,13.5-9.3,13.5s-9.3-6-9.3-13.5C3.7,4.1,8.5,1.7,13,1.7 M13,0C6.9,0,2,3.7,2,10.8
		S6.9,26,13,26c6.1,0,11-8,11-15.2S19.1,0,13,0L13,0z"/>
</g>
<path d="M11,0v6h4V0H11z M13,5.2c-0.6,0-1.2-0.3-1.2-0.7s0.5-0.7,1.2-0.7c0.6,0,1.2,0.3,1.2,0.7S13.6,5.2,13,5.2z"/>
<path d="M24,9h-4v4h4V9z M20.8,11c0-0.6,0.3-1.2,0.7-1.2c0.4,0,0.7,0.5,0.7,1.2c0,0.6-0.3,1.2-0.7,1.2C21.1,12.2,20.8,11.6,20.8,11z
	"/>
<path d="M2,13h4V9H2V13z M4.5,12.2c-0.4,0-0.7-0.5-0.7-1.2c0-0.6,0.3-1.2,0.7-1.2c0.4,0,0.7,0.5,0.7,1.2C5.2,11.6,4.9,12.2,4.5,12.2
	z"/>
</svg>
